<mxfile host="app.diagrams.net" agent="Mozilla/5.0 (Macintosh; Intel Mac OS X 10_15_7) AppleWebKit/605.1.15 (KHTML, like Gecko) Version/18.4 Safari/605.1.15" version="27.1.6">
  <diagram name="หน้า-1" id="gQBHUgDKEybXLM5i0HbF">
    <mxGraphModel dx="2698" dy="2434" grid="0" gridSize="15" guides="1" tooltips="1" connect="1" arrows="1" fold="1" page="1" pageScale="1" pageWidth="827" pageHeight="1169" math="0" shadow="0" adaptiveColors="auto">
      <root>
        <mxCell id="0" />
        <mxCell id="1" parent="0" />
        <mxCell id="4BpRKvhMIzCagh5jir0t-1" value="Project" style="rounded=0;whiteSpace=wrap;html=1;fillColor=#b1ddf0;strokeColor=#10739e;" parent="1" vertex="1">
          <mxGeometry x="678" y="810" width="110" height="60" as="geometry" />
        </mxCell>
        <mxCell id="4BpRKvhMIzCagh5jir0t-2" value="Organization" style="rounded=0;whiteSpace=wrap;html=1;fillColor=#b1ddf0;strokeColor=#10739e;" parent="1" vertex="1">
          <mxGeometry x="-523" y="810" width="110" height="60" as="geometry" />
        </mxCell>
        <mxCell id="4BpRKvhMIzCagh5jir0t-3" value="User" style="rounded=0;whiteSpace=wrap;html=1;fillColor=#b1ddf0;strokeColor=#10739e;" parent="1" vertex="1">
          <mxGeometry x="142" y="81" width="110" height="60" as="geometry" />
        </mxCell>
        <mxCell id="4BpRKvhMIzCagh5jir0t-12" value="Campus" style="rounded=0;whiteSpace=wrap;html=1;fillColor=#b1ddf0;strokeColor=#10739e;" parent="1" vertex="1">
          <mxGeometry x="-529" y="-725" width="110" height="60" as="geometry" />
        </mxCell>
        <mxCell id="4BpRKvhMIzCagh5jir0t-14" value="OrganizationType" style="rounded=0;whiteSpace=wrap;html=1;fillColor=#b1ddf0;strokeColor=#10739e;" parent="1" vertex="1">
          <mxGeometry x="-523" y="150" width="110" height="60" as="geometry" />
        </mxCell>
        <mxCell id="DLBiUeFV5ZpTCrsJApyq-7" value="" style="endArrow=none;html=1;rounded=0;hachureGap=4;strokeColor=#0B4D6A;fontFamily=Architects Daughter;fontSource=https%3A%2F%2Ffonts.googleapis.com%2Fcss%3Ffamily%3DArchitects%2BDaughter;entryX=0.5;entryY=1;entryDx=0;entryDy=0;exitX=0.5;exitY=0;exitDx=0;exitDy=0;" parent="1" source="DLBiUeFV5ZpTCrsJApyq-34" target="4BpRKvhMIzCagh5jir0t-12" edge="1">
          <mxGeometry width="50" height="50" relative="1" as="geometry">
            <mxPoint x="260" y="159.57999999999998" as="sourcePoint" />
            <mxPoint x="460" y="159.57999999999998" as="targetPoint" />
          </mxGeometry>
        </mxCell>
        <mxCell id="DLBiUeFV5ZpTCrsJApyq-10" value="" style="endArrow=none;html=1;rounded=0;hachureGap=4;strokeColor=#0B4D6A;fontFamily=Architects Daughter;fontSource=https%3A%2F%2Ffonts.googleapis.com%2Fcss%3Ffamily%3DArchitects%2BDaughter;entryX=0.5;entryY=0;entryDx=0;entryDy=0;exitX=0.5;exitY=1;exitDx=0;exitDy=0;" parent="1" source="DLBiUeFV5ZpTCrsJApyq-25" target="4BpRKvhMIzCagh5jir0t-2" edge="1">
          <mxGeometry width="50" height="50" relative="1" as="geometry">
            <mxPoint x="120" y="405" as="sourcePoint" />
            <mxPoint x="250" y="405.57" as="targetPoint" />
          </mxGeometry>
        </mxCell>
        <mxCell id="DLBiUeFV5ZpTCrsJApyq-26" value="" style="endArrow=none;html=1;rounded=0;hachureGap=4;strokeColor=#0B4D6A;fontFamily=Architects Daughter;fontSource=https%3A%2F%2Ffonts.googleapis.com%2Fcss%3Ffamily%3DArchitects%2BDaughter;entryX=0.5;entryY=0;entryDx=0;entryDy=0;exitX=0.5;exitY=1;exitDx=0;exitDy=0;" parent="1" source="4BpRKvhMIzCagh5jir0t-14" target="DLBiUeFV5ZpTCrsJApyq-25" edge="1">
          <mxGeometry width="50" height="50" relative="1" as="geometry">
            <mxPoint x="155" y="330" as="sourcePoint" />
            <mxPoint x="155" y="630" as="targetPoint" />
          </mxGeometry>
        </mxCell>
        <mxCell id="DLBiUeFV5ZpTCrsJApyq-25" value="HAVE" style="rhombus;whiteSpace=wrap;html=1;" parent="1" vertex="1">
          <mxGeometry x="-508" y="445" width="80" height="80" as="geometry" />
        </mxCell>
        <mxCell id="DLBiUeFV5ZpTCrsJApyq-33" value="CREATE" style="rhombus;whiteSpace=wrap;html=1;" parent="1" vertex="1">
          <mxGeometry y="800" width="80" height="80" as="geometry" />
        </mxCell>
        <mxCell id="DLBiUeFV5ZpTCrsJApyq-34" value="HAVE" style="rhombus;whiteSpace=wrap;html=1;" parent="1" vertex="1">
          <mxGeometry x="-508" y="-45" width="80" height="80" as="geometry" />
        </mxCell>
        <mxCell id="DLBiUeFV5ZpTCrsJApyq-36" value="" style="endArrow=none;html=1;rounded=0;hachureGap=4;strokeColor=#0B4D6A;fontFamily=Architects Daughter;fontSource=https%3A%2F%2Ffonts.googleapis.com%2Fcss%3Ffamily%3DArchitects%2BDaughter;entryX=0.5;entryY=1;entryDx=0;entryDy=0;exitX=0.5;exitY=0;exitDx=0;exitDy=0;" parent="1" source="4BpRKvhMIzCagh5jir0t-14" target="DLBiUeFV5ZpTCrsJApyq-34" edge="1">
          <mxGeometry width="50" height="50" relative="1" as="geometry">
            <mxPoint x="-195" y="120" as="sourcePoint" />
            <mxPoint x="180" y="75" as="targetPoint" />
          </mxGeometry>
        </mxCell>
        <mxCell id="DLBiUeFV5ZpTCrsJApyq-48" value="" style="endArrow=none;html=1;rounded=0;hachureGap=4;strokeColor=#0B4D6A;fontFamily=Architects Daughter;fontSource=https%3A%2F%2Ffonts.googleapis.com%2Fcss%3Ffamily%3DArchitects%2BDaughter;" parent="1" edge="1">
          <mxGeometry width="50" height="50" relative="1" as="geometry">
            <mxPoint x="477" y="306" as="sourcePoint" />
            <mxPoint x="477" y="305.5" as="targetPoint" />
          </mxGeometry>
        </mxCell>
        <mxCell id="DLBiUeFV5ZpTCrsJApyq-71" value="" style="endArrow=none;html=1;rounded=0;hachureGap=4;strokeColor=#0B4D6A;fontFamily=Architects Daughter;fontSource=https%3A%2F%2Ffonts.googleapis.com%2Fcss%3Ffamily%3DArchitects%2BDaughter;entryX=1;entryY=0.5;entryDx=0;entryDy=0;exitX=0;exitY=0.5;exitDx=0;exitDy=0;" parent="1" target="4BpRKvhMIzCagh5jir0t-2" edge="1">
          <mxGeometry width="50" height="50" relative="1" as="geometry">
            <mxPoint y="840" as="sourcePoint" />
            <mxPoint x="-60" y="790" as="targetPoint" />
          </mxGeometry>
        </mxCell>
        <mxCell id="DLBiUeFV5ZpTCrsJApyq-72" value="" style="endArrow=none;html=1;rounded=0;hachureGap=4;strokeColor=#0B4D6A;fontFamily=Architects Daughter;fontSource=https%3A%2F%2Ffonts.googleapis.com%2Fcss%3Ffamily%3DArchitects%2BDaughter;entryX=0;entryY=0.5;entryDx=0;entryDy=0;exitX=1;exitY=0.5;exitDx=0;exitDy=0;" parent="1" source="DLBiUeFV5ZpTCrsJApyq-89" target="4BpRKvhMIzCagh5jir0t-1" edge="1">
          <mxGeometry width="50" height="50" relative="1" as="geometry">
            <mxPoint x="80" y="840" as="sourcePoint" />
            <mxPoint x="80" y="1015" as="targetPoint" />
          </mxGeometry>
        </mxCell>
        <mxCell id="DLBiUeFV5ZpTCrsJApyq-76" value="" style="endArrow=none;html=1;rounded=0;hachureGap=4;strokeColor=#0B4D6A;fontFamily=Architects Daughter;fontSource=https%3A%2F%2Ffonts.googleapis.com%2Fcss%3Ffamily%3DArchitects%2BDaughter;entryX=0;entryY=0.5;entryDx=0;entryDy=0;" parent="1" target="4BpRKvhMIzCagh5jir0t-3" edge="1">
          <mxGeometry width="50" height="50" relative="1" as="geometry">
            <mxPoint x="-128" y="453" as="sourcePoint" />
            <mxPoint x="121.99999999999955" y="121" as="targetPoint" />
          </mxGeometry>
        </mxCell>
        <mxCell id="DLBiUeFV5ZpTCrsJApyq-82" value="" style="endArrow=none;html=1;rounded=0;hachureGap=4;strokeColor=#0B4D6A;fontFamily=Architects Daughter;fontSource=https%3A%2F%2Ffonts.googleapis.com%2Fcss%3Ffamily%3DArchitects%2BDaughter;entryX=0.138;entryY=0.65;entryDx=0;entryDy=0;exitX=1;exitY=0;exitDx=0;exitDy=0;entryPerimeter=0;" parent="1" source="4BpRKvhMIzCagh5jir0t-2" target="DLBiUeFV5ZpTCrsJApyq-78" edge="1">
          <mxGeometry width="50" height="50" relative="1" as="geometry">
            <mxPoint x="-145" y="810" as="sourcePoint" />
            <mxPoint x="255" y="470" as="targetPoint" />
          </mxGeometry>
        </mxCell>
        <mxCell id="DLBiUeFV5ZpTCrsJApyq-78" value="HAVE" style="rhombus;whiteSpace=wrap;html=1;" parent="1" vertex="1">
          <mxGeometry x="-177" y="427" width="80" height="80" as="geometry" />
        </mxCell>
        <mxCell id="DLBiUeFV5ZpTCrsJApyq-90" value="" style="endArrow=none;html=1;rounded=0;hachureGap=4;strokeColor=#0B4D6A;fontFamily=Architects Daughter;fontSource=https%3A%2F%2Ffonts.googleapis.com%2Fcss%3Ffamily%3DArchitects%2BDaughter;entryX=0;entryY=0.5;entryDx=0;entryDy=0;exitX=1;exitY=0.5;exitDx=0;exitDy=0;" parent="1" target="DLBiUeFV5ZpTCrsJApyq-89" edge="1">
          <mxGeometry width="50" height="50" relative="1" as="geometry">
            <mxPoint x="80" y="840" as="sourcePoint" />
            <mxPoint x="255" y="840" as="targetPoint" />
          </mxGeometry>
        </mxCell>
        <mxCell id="DLBiUeFV5ZpTCrsJApyq-89" value="" style="ellipse;whiteSpace=wrap;html=1;aspect=fixed;" parent="1" vertex="1">
          <mxGeometry x="404" y="822" width="30" height="30" as="geometry" />
        </mxCell>
        <mxCell id="ml2Jakst_2B5WDpi4ZWz-4" value="&lt;u&gt;id_campus&lt;/u&gt;" style="ellipse;whiteSpace=wrap;html=1;fillColor=#60a917;fontColor=#ffffff;strokeColor=#2D7600;" parent="1" vertex="1">
          <mxGeometry x="-582" y="-833" width="75" height="30" as="geometry" />
        </mxCell>
        <mxCell id="ml2Jakst_2B5WDpi4ZWz-5" value="name" style="ellipse;whiteSpace=wrap;html=1;" parent="1" vertex="1">
          <mxGeometry x="-488" y="-833" width="75" height="30" as="geometry" />
        </mxCell>
        <mxCell id="ml2Jakst_2B5WDpi4ZWz-6" value="" style="endArrow=none;html=1;rounded=0;entryX=0.5;entryY=1;entryDx=0;entryDy=0;exitX=0.25;exitY=0;exitDx=0;exitDy=0;" parent="1" source="4BpRKvhMIzCagh5jir0t-12" target="ml2Jakst_2B5WDpi4ZWz-4" edge="1">
          <mxGeometry width="50" height="50" relative="1" as="geometry">
            <mxPoint x="-413" y="-784" as="sourcePoint" />
            <mxPoint x="-363" y="-834" as="targetPoint" />
          </mxGeometry>
        </mxCell>
        <mxCell id="ml2Jakst_2B5WDpi4ZWz-7" value="" style="endArrow=none;html=1;rounded=0;entryX=0.5;entryY=1;entryDx=0;entryDy=0;exitX=0.7;exitY=0;exitDx=0;exitDy=0;exitPerimeter=0;" parent="1" source="4BpRKvhMIzCagh5jir0t-12" target="ml2Jakst_2B5WDpi4ZWz-5" edge="1">
          <mxGeometry width="50" height="50" relative="1" as="geometry">
            <mxPoint x="-310" y="-794" as="sourcePoint" />
            <mxPoint x="-260" y="-844" as="targetPoint" />
          </mxGeometry>
        </mxCell>
        <mxCell id="ml2Jakst_2B5WDpi4ZWz-8" value="" style="endArrow=none;html=1;rounded=0;exitX=0;exitY=0.25;exitDx=0;exitDy=0;entryX=1;entryY=1;entryDx=0;entryDy=0;" parent="1" source="4BpRKvhMIzCagh5jir0t-14" target="ml2Jakst_2B5WDpi4ZWz-9" edge="1">
          <mxGeometry width="50" height="50" relative="1" as="geometry">
            <mxPoint x="-240" y="240" as="sourcePoint" />
            <mxPoint x="-300" y="210" as="targetPoint" />
          </mxGeometry>
        </mxCell>
        <mxCell id="ml2Jakst_2B5WDpi4ZWz-9" value="&lt;u&gt;id_orgType&lt;/u&gt;" style="ellipse;whiteSpace=wrap;html=1;fillColor=#60a917;fontColor=#ffffff;strokeColor=#2D7600;" parent="1" vertex="1">
          <mxGeometry x="-675" y="60" width="75" height="30" as="geometry" />
        </mxCell>
        <mxCell id="ml2Jakst_2B5WDpi4ZWz-10" value="name" style="ellipse;whiteSpace=wrap;html=1;" parent="1" vertex="1">
          <mxGeometry x="-690" y="210" width="75" height="30" as="geometry" />
        </mxCell>
        <mxCell id="ml2Jakst_2B5WDpi4ZWz-11" value="" style="endArrow=none;html=1;rounded=0;exitX=0;exitY=0.75;exitDx=0;exitDy=0;entryX=1;entryY=0.5;entryDx=0;entryDy=0;" parent="1" source="4BpRKvhMIzCagh5jir0t-14" target="ml2Jakst_2B5WDpi4ZWz-10" edge="1">
          <mxGeometry width="50" height="50" relative="1" as="geometry">
            <mxPoint x="-214" y="274" as="sourcePoint" />
            <mxPoint x="-255" y="240" as="targetPoint" />
          </mxGeometry>
        </mxCell>
        <mxCell id="ml2Jakst_2B5WDpi4ZWz-17" value="&lt;u&gt;id_org&lt;/u&gt;" style="ellipse;whiteSpace=wrap;html=1;fillColor=#60a917;fontColor=#ffffff;strokeColor=#2D7600;" parent="1" vertex="1">
          <mxGeometry x="-780" y="780" width="75" height="30" as="geometry" />
        </mxCell>
        <mxCell id="ml2Jakst_2B5WDpi4ZWz-20" value="name_en" style="ellipse;whiteSpace=wrap;html=1;" parent="1" vertex="1">
          <mxGeometry x="-795" y="825" width="75" height="30" as="geometry" />
        </mxCell>
        <mxCell id="ml2Jakst_2B5WDpi4ZWz-21" value="name_th" style="ellipse;whiteSpace=wrap;html=1;" parent="1" vertex="1">
          <mxGeometry x="-795" y="880" width="75" height="30" as="geometry" />
        </mxCell>
        <mxCell id="ml2Jakst_2B5WDpi4ZWz-23" value="facebook" style="ellipse;whiteSpace=wrap;html=1;" parent="1" vertex="1">
          <mxGeometry x="-735" y="1005" width="75" height="30" as="geometry" />
        </mxCell>
        <mxCell id="ml2Jakst_2B5WDpi4ZWz-24" value="instragram" style="ellipse;whiteSpace=wrap;html=1;" parent="1" vertex="1">
          <mxGeometry x="-570" y="1050" width="75" height="30" as="geometry" />
        </mxCell>
        <mxCell id="ml2Jakst_2B5WDpi4ZWz-25" value="description" style="ellipse;whiteSpace=wrap;html=1;" parent="1" vertex="1">
          <mxGeometry x="-765" y="975" width="75" height="30" as="geometry" />
        </mxCell>
        <mxCell id="ml2Jakst_2B5WDpi4ZWz-26" value="detail" style="ellipse;whiteSpace=wrap;html=1;" parent="1" vertex="1">
          <mxGeometry x="-630" y="675" width="75" height="30" as="geometry" />
        </mxCell>
        <mxCell id="ml2Jakst_2B5WDpi4ZWz-27" value="email" style="ellipse;whiteSpace=wrap;html=1;" parent="1" vertex="1">
          <mxGeometry x="-660" y="1035" width="75" height="30" as="geometry" />
        </mxCell>
        <mxCell id="ml2Jakst_2B5WDpi4ZWz-29" value="phone" style="ellipse;whiteSpace=wrap;html=1;" parent="1" vertex="1">
          <mxGeometry x="-465" y="1050" width="75" height="30" as="geometry" />
        </mxCell>
        <mxCell id="ml2Jakst_2B5WDpi4ZWz-30" value="createAt" style="ellipse;whiteSpace=wrap;html=1;" parent="1" vertex="1">
          <mxGeometry x="-375" y="1050" width="75" height="30" as="geometry" />
        </mxCell>
        <mxCell id="ml2Jakst_2B5WDpi4ZWz-31" value="updateAt" style="ellipse;whiteSpace=wrap;html=1;" parent="1" vertex="1">
          <mxGeometry x="-735" y="750" width="75" height="30" as="geometry" />
        </mxCell>
        <mxCell id="ml2Jakst_2B5WDpi4ZWz-32" value="image" style="ellipse;whiteSpace=wrap;html=1;" parent="1" vertex="1">
          <mxGeometry x="-690" y="705" width="75" height="30" as="geometry" />
        </mxCell>
        <mxCell id="ml2Jakst_2B5WDpi4ZWz-33" value="nickname" style="ellipse;whiteSpace=wrap;html=1;" parent="1" vertex="1">
          <mxGeometry x="-780" y="930" width="75" height="30" as="geometry" />
        </mxCell>
        <mxCell id="ml2Jakst_2B5WDpi4ZWz-36" value="&lt;u&gt;id_project&lt;/u&gt;" style="ellipse;whiteSpace=wrap;html=1;fillColor=#60a917;fontColor=#ffffff;strokeColor=#2D7600;" parent="1" vertex="1">
          <mxGeometry x="-24" y="1060" width="75" height="30" as="geometry" />
        </mxCell>
        <mxCell id="ml2Jakst_2B5WDpi4ZWz-40" value="date_start" style="ellipse;whiteSpace=wrap;html=1;" parent="1" vertex="1">
          <mxGeometry x="401" y="1088" width="75" height="30" as="geometry" />
        </mxCell>
        <mxCell id="ml2Jakst_2B5WDpi4ZWz-42" value="date_end" style="ellipse;whiteSpace=wrap;html=1;" parent="1" vertex="1">
          <mxGeometry x="483" y="1084" width="75" height="30" as="geometry" />
        </mxCell>
        <mxCell id="ml2Jakst_2B5WDpi4ZWz-45" value="name_en" style="ellipse;whiteSpace=wrap;html=1;" parent="1" vertex="1">
          <mxGeometry x="255" y="1073" width="75" height="30" as="geometry" />
        </mxCell>
        <mxCell id="ml2Jakst_2B5WDpi4ZWz-46" value="name_th" style="ellipse;whiteSpace=wrap;html=1;" parent="1" vertex="1">
          <mxGeometry x="904" y="1035" width="75" height="30" as="geometry" />
        </mxCell>
        <mxCell id="ml2Jakst_2B5WDpi4ZWz-66" style="edgeStyle=orthogonalEdgeStyle;rounded=0;orthogonalLoop=1;jettySize=auto;html=1;" parent="1" edge="1">
          <mxGeometry relative="1" as="geometry">
            <mxPoint x="-516.8571428571427" y="630" as="targetPoint" />
            <mxPoint x="-510" y="630" as="sourcePoint" />
          </mxGeometry>
        </mxCell>
        <mxCell id="ml2Jakst_2B5WDpi4ZWz-60" value="principles_and_reasoning" style="ellipse;whiteSpace=wrap;html=1;" parent="1" vertex="1">
          <mxGeometry x="556" y="1048" width="180" height="30" as="geometry" />
        </mxCell>
        <mxCell id="ml2Jakst_2B5WDpi4ZWz-61" value="objective" style="ellipse;whiteSpace=wrap;html=1;" parent="1" vertex="1">
          <mxGeometry x="722" y="1039" width="180" height="30" as="geometry" />
        </mxCell>
        <mxCell id="ml2Jakst_2B5WDpi4ZWz-62" value="activity_format" style="ellipse;whiteSpace=wrap;html=1;" parent="1" vertex="1">
          <mxGeometry x="-215" y="1054" width="180" height="30" as="geometry" />
        </mxCell>
        <mxCell id="aIaTs00fkOeMePZRw_a_-2" value="&lt;u&gt;id_user&lt;/u&gt;" style="ellipse;whiteSpace=wrap;html=1;fillColor=#60a917;fontColor=#ffffff;strokeColor=#2D7600;" parent="1" vertex="1">
          <mxGeometry x="-123" y="-119" width="75" height="30" as="geometry" />
        </mxCell>
        <mxCell id="aIaTs00fkOeMePZRw_a_-4" value="email" style="ellipse;whiteSpace=wrap;html=1;" parent="1" vertex="1">
          <mxGeometry x="-31" y="-119" width="75" height="30" as="geometry" />
        </mxCell>
        <mxCell id="aIaTs00fkOeMePZRw_a_-5" value="name" style="ellipse;whiteSpace=wrap;html=1;" parent="1" vertex="1">
          <mxGeometry x="59" y="-119" width="75" height="30" as="geometry" />
        </mxCell>
        <mxCell id="aIaTs00fkOeMePZRw_a_-6" value="role" style="ellipse;whiteSpace=wrap;html=1;" parent="1" vertex="1">
          <mxGeometry x="232" y="-119" width="75" height="30" as="geometry" />
        </mxCell>
        <mxCell id="aIaTs00fkOeMePZRw_a_-7" value="position" style="ellipse;whiteSpace=wrap;html=1;" parent="1" vertex="1">
          <mxGeometry x="344" y="-119" width="75" height="30" as="geometry" />
        </mxCell>
        <mxCell id="aIaTs00fkOeMePZRw_a_-16" value="telno" style="ellipse;whiteSpace=wrap;html=1;" parent="1" vertex="1">
          <mxGeometry x="149" y="-119" width="75" height="30" as="geometry" />
        </mxCell>
        <mxCell id="aIaTs00fkOeMePZRw_a_-20" value="image" style="ellipse;whiteSpace=wrap;html=1;" parent="1" vertex="1">
          <mxGeometry x="434" y="-119" width="75" height="30" as="geometry" />
        </mxCell>
        <mxCell id="aIaTs00fkOeMePZRw_a_-23" value="Identity" style="ellipse;whiteSpace=wrap;html=1;" parent="1" vertex="1">
          <mxGeometry x="324" y="1084" width="75" height="30" as="geometry" />
        </mxCell>
        <mxCell id="aIaTs00fkOeMePZRw_a_-39" value="" style="endArrow=none;html=1;rounded=0;exitX=0;exitY=0;exitDx=0;exitDy=0;entryX=0.5;entryY=1;entryDx=0;entryDy=0;" parent="1" source="4BpRKvhMIzCagh5jir0t-3" target="aIaTs00fkOeMePZRw_a_-2" edge="1">
          <mxGeometry width="50" height="50" relative="1" as="geometry">
            <mxPoint x="52" y="-39" as="sourcePoint" />
            <mxPoint x="102" y="-89" as="targetPoint" />
          </mxGeometry>
        </mxCell>
        <mxCell id="aIaTs00fkOeMePZRw_a_-40" value="" style="endArrow=none;html=1;rounded=0;entryX=0.5;entryY=1;entryDx=0;entryDy=0;exitX=0.25;exitY=0;exitDx=0;exitDy=0;" parent="1" source="4BpRKvhMIzCagh5jir0t-3" target="aIaTs00fkOeMePZRw_a_-4" edge="1">
          <mxGeometry width="50" height="50" relative="1" as="geometry">
            <mxPoint x="52" y="-39" as="sourcePoint" />
            <mxPoint x="102" y="-89" as="targetPoint" />
          </mxGeometry>
        </mxCell>
        <mxCell id="aIaTs00fkOeMePZRw_a_-41" value="" style="endArrow=none;html=1;rounded=0;entryX=0.5;entryY=0;entryDx=0;entryDy=0;exitX=0.5;exitY=1;exitDx=0;exitDy=0;" parent="1" source="aIaTs00fkOeMePZRw_a_-5" target="4BpRKvhMIzCagh5jir0t-3" edge="1">
          <mxGeometry width="50" height="50" relative="1" as="geometry">
            <mxPoint x="52" y="-39" as="sourcePoint" />
            <mxPoint x="102" y="-89" as="targetPoint" />
          </mxGeometry>
        </mxCell>
        <mxCell id="aIaTs00fkOeMePZRw_a_-42" value="" style="endArrow=none;html=1;rounded=0;entryX=0.5;entryY=1;entryDx=0;entryDy=0;exitX=0.5;exitY=0;exitDx=0;exitDy=0;" parent="1" source="4BpRKvhMIzCagh5jir0t-3" target="aIaTs00fkOeMePZRw_a_-16" edge="1">
          <mxGeometry width="50" height="50" relative="1" as="geometry">
            <mxPoint x="202" y="76" as="sourcePoint" />
            <mxPoint x="102" y="-89" as="targetPoint" />
          </mxGeometry>
        </mxCell>
        <mxCell id="aIaTs00fkOeMePZRw_a_-44" value="" style="endArrow=none;html=1;rounded=0;entryX=0.5;entryY=1;entryDx=0;entryDy=0;" parent="1" source="4BpRKvhMIzCagh5jir0t-3" target="aIaTs00fkOeMePZRw_a_-6" edge="1">
          <mxGeometry width="50" height="50" relative="1" as="geometry">
            <mxPoint x="202" y="76" as="sourcePoint" />
            <mxPoint x="302" y="-44" as="targetPoint" />
          </mxGeometry>
        </mxCell>
        <mxCell id="aIaTs00fkOeMePZRw_a_-45" value="" style="endArrow=none;html=1;rounded=0;entryX=0.5;entryY=1;entryDx=0;entryDy=0;exitX=0.598;exitY=0.031;exitDx=0;exitDy=0;exitPerimeter=0;" parent="1" source="4BpRKvhMIzCagh5jir0t-3" target="aIaTs00fkOeMePZRw_a_-7" edge="1">
          <mxGeometry width="50" height="50" relative="1" as="geometry">
            <mxPoint x="313.5" y="81" as="sourcePoint" />
            <mxPoint x="381.5" y="-84" as="targetPoint" />
          </mxGeometry>
        </mxCell>
        <mxCell id="aIaTs00fkOeMePZRw_a_-46" value="" style="endArrow=none;html=1;rounded=0;entryX=0.5;entryY=1;entryDx=0;entryDy=0;exitX=1;exitY=0;exitDx=0;exitDy=0;" parent="1" source="4BpRKvhMIzCagh5jir0t-3" target="aIaTs00fkOeMePZRw_a_-20" edge="1">
          <mxGeometry width="50" height="50" relative="1" as="geometry">
            <mxPoint x="307" y="143" as="sourcePoint" />
            <mxPoint x="481" y="-29" as="targetPoint" />
          </mxGeometry>
        </mxCell>
        <mxCell id="aIaTs00fkOeMePZRw_a_-47" value="" style="endArrow=none;html=1;rounded=0;exitX=1;exitY=0.5;exitDx=0;exitDy=0;entryX=0;entryY=1;entryDx=0;entryDy=0;" parent="1" source="ml2Jakst_2B5WDpi4ZWz-62" target="4BpRKvhMIzCagh5jir0t-1" edge="1">
          <mxGeometry width="50" height="50" relative="1" as="geometry">
            <mxPoint x="30" y="930" as="sourcePoint" />
            <mxPoint x="80" y="880" as="targetPoint" />
          </mxGeometry>
        </mxCell>
        <mxCell id="aIaTs00fkOeMePZRw_a_-48" value="" style="endArrow=none;html=1;rounded=0;exitX=0.644;exitY=0.139;exitDx=0;exitDy=0;exitPerimeter=0;entryX=0.25;entryY=1;entryDx=0;entryDy=0;" parent="1" source="ml2Jakst_2B5WDpi4ZWz-36" edge="1" target="4BpRKvhMIzCagh5jir0t-1">
          <mxGeometry width="50" height="50" relative="1" as="geometry">
            <mxPoint x="-2" y="972.5" as="sourcePoint" />
            <mxPoint x="255" y="870" as="targetPoint" />
          </mxGeometry>
        </mxCell>
        <mxCell id="aIaTs00fkOeMePZRw_a_-58" value="" style="endArrow=none;html=1;rounded=0;entryX=0.5;entryY=1;entryDx=0;entryDy=0;exitX=0.5;exitY=0;exitDx=0;exitDy=0;" parent="1" source="aIaTs00fkOeMePZRw_a_-23" target="4BpRKvhMIzCagh5jir0t-1" edge="1">
          <mxGeometry width="50" height="50" relative="1" as="geometry">
            <mxPoint x="295" y="1005" as="sourcePoint" />
            <mxPoint x="315" y="900" as="targetPoint" />
          </mxGeometry>
        </mxCell>
        <mxCell id="aIaTs00fkOeMePZRw_a_-59" value="" style="endArrow=none;html=1;rounded=0;exitX=0.25;exitY=1;exitDx=0;exitDy=0;entryX=0.5;entryY=0;entryDx=0;entryDy=0;" parent="1" source="4BpRKvhMIzCagh5jir0t-1" target="ml2Jakst_2B5WDpi4ZWz-45" edge="1">
          <mxGeometry width="50" height="50" relative="1" as="geometry">
            <mxPoint x="223" y="1275" as="sourcePoint" />
            <mxPoint x="273.0250000000001" y="1140" as="targetPoint" />
          </mxGeometry>
        </mxCell>
        <mxCell id="aIaTs00fkOeMePZRw_a_-60" value="" style="endArrow=none;html=1;rounded=0;exitX=0.5;exitY=0;exitDx=0;exitDy=0;entryX=0.75;entryY=1;entryDx=0;entryDy=0;" parent="1" source="ml2Jakst_2B5WDpi4ZWz-60" target="4BpRKvhMIzCagh5jir0t-1" edge="1">
          <mxGeometry width="50" height="50" relative="1" as="geometry">
            <mxPoint x="300" y="1080" as="sourcePoint" />
            <mxPoint x="315.0250000000001" y="945" as="targetPoint" />
          </mxGeometry>
        </mxCell>
        <mxCell id="aIaTs00fkOeMePZRw_a_-61" value="" style="endArrow=none;html=1;rounded=0;exitX=0.005;exitY=0.311;exitDx=0;exitDy=0;entryX=1;entryY=0.75;entryDx=0;entryDy=0;exitPerimeter=0;" parent="1" source="ml2Jakst_2B5WDpi4ZWz-61" edge="1" target="4BpRKvhMIzCagh5jir0t-1">
          <mxGeometry width="50" height="50" relative="1" as="geometry">
            <mxPoint x="592.5" y="1005" as="sourcePoint" />
            <mxPoint x="366.5" y="870" as="targetPoint" />
          </mxGeometry>
        </mxCell>
        <mxCell id="aIaTs00fkOeMePZRw_a_-62" value="" style="endArrow=none;html=1;rounded=0;exitX=0;exitY=0.5;exitDx=0;exitDy=0;entryX=1;entryY=0.75;entryDx=0;entryDy=0;" parent="1" source="ml2Jakst_2B5WDpi4ZWz-46" target="4BpRKvhMIzCagh5jir0t-1" edge="1">
          <mxGeometry width="50" height="50" relative="1" as="geometry">
            <mxPoint x="706.5" y="930" as="sourcePoint" />
            <mxPoint x="480" y="861" as="targetPoint" />
          </mxGeometry>
        </mxCell>
        <mxCell id="aIaTs00fkOeMePZRw_a_-65" style="edgeStyle=orthogonalEdgeStyle;rounded=0;orthogonalLoop=1;jettySize=auto;html=1;exitX=0.5;exitY=1;exitDx=0;exitDy=0;" parent="1" edge="1">
          <mxGeometry relative="1" as="geometry">
            <mxPoint x="496.5" y="1155" as="sourcePoint" />
            <mxPoint x="496.5" y="1155" as="targetPoint" />
          </mxGeometry>
        </mxCell>
        <mxCell id="aIaTs00fkOeMePZRw_a_-66" value="" style="endArrow=none;html=1;rounded=0;entryX=0.682;entryY=1.017;entryDx=0;entryDy=0;entryPerimeter=0;exitX=0.5;exitY=0;exitDx=0;exitDy=0;" parent="1" source="ml2Jakst_2B5WDpi4ZWz-42" target="4BpRKvhMIzCagh5jir0t-1" edge="1">
          <mxGeometry width="50" height="50" relative="1" as="geometry">
            <mxPoint x="334" y="970" as="sourcePoint" />
            <mxPoint x="384" y="920" as="targetPoint" />
          </mxGeometry>
        </mxCell>
        <mxCell id="aIaTs00fkOeMePZRw_a_-67" value="" style="endArrow=none;html=1;rounded=0;entryX=0.598;entryY=0.989;entryDx=0;entryDy=0;entryPerimeter=0;exitX=0.5;exitY=0;exitDx=0;exitDy=0;" parent="1" source="ml2Jakst_2B5WDpi4ZWz-40" target="4BpRKvhMIzCagh5jir0t-1" edge="1">
          <mxGeometry width="50" height="50" relative="1" as="geometry">
            <mxPoint x="400.25" y="1004" as="sourcePoint" />
            <mxPoint x="308.25" y="870" as="targetPoint" />
          </mxGeometry>
        </mxCell>
        <mxCell id="aIaTs00fkOeMePZRw_a_-93" value="" style="endArrow=none;html=1;rounded=0;entryX=0.75;entryY=1;entryDx=0;entryDy=0;exitX=0.5;exitY=0;exitDx=0;exitDy=0;" parent="1" source="ml2Jakst_2B5WDpi4ZWz-30" target="4BpRKvhMIzCagh5jir0t-2" edge="1">
          <mxGeometry width="50" height="50" relative="1" as="geometry">
            <mxPoint x="-465" y="1055" as="sourcePoint" />
            <mxPoint x="-415" y="1005" as="targetPoint" />
          </mxGeometry>
        </mxCell>
        <mxCell id="aIaTs00fkOeMePZRw_a_-94" value="" style="endArrow=none;html=1;rounded=0;entryX=0.565;entryY=1.031;entryDx=0;entryDy=0;entryPerimeter=0;exitX=0.5;exitY=0;exitDx=0;exitDy=0;" parent="1" source="ml2Jakst_2B5WDpi4ZWz-29" target="4BpRKvhMIzCagh5jir0t-2" edge="1">
          <mxGeometry width="50" height="50" relative="1" as="geometry">
            <mxPoint x="-525" y="980" as="sourcePoint" />
            <mxPoint x="-475" y="930" as="targetPoint" />
          </mxGeometry>
        </mxCell>
        <mxCell id="aIaTs00fkOeMePZRw_a_-95" value="" style="endArrow=none;html=1;rounded=0;entryX=0.368;entryY=1.003;entryDx=0;entryDy=0;entryPerimeter=0;exitX=0.5;exitY=0;exitDx=0;exitDy=0;" parent="1" source="ml2Jakst_2B5WDpi4ZWz-24" target="4BpRKvhMIzCagh5jir0t-2" edge="1">
          <mxGeometry width="50" height="50" relative="1" as="geometry">
            <mxPoint x="-525" y="980" as="sourcePoint" />
            <mxPoint x="-475" y="900" as="targetPoint" />
          </mxGeometry>
        </mxCell>
        <mxCell id="aIaTs00fkOeMePZRw_a_-96" value="" style="endArrow=none;html=1;rounded=0;entryX=0.25;entryY=1;entryDx=0;entryDy=0;exitX=0.6;exitY=0;exitDx=0;exitDy=0;exitPerimeter=0;" parent="1" source="ml2Jakst_2B5WDpi4ZWz-27" target="4BpRKvhMIzCagh5jir0t-2" edge="1">
          <mxGeometry width="50" height="50" relative="1" as="geometry">
            <mxPoint x="-525" y="980" as="sourcePoint" />
            <mxPoint x="-475" y="930" as="targetPoint" />
          </mxGeometry>
        </mxCell>
        <mxCell id="aIaTs00fkOeMePZRw_a_-97" value="" style="endArrow=none;html=1;rounded=0;entryX=0;entryY=1;entryDx=0;entryDy=0;exitX=1;exitY=0;exitDx=0;exitDy=0;" parent="1" source="ml2Jakst_2B5WDpi4ZWz-23" target="4BpRKvhMIzCagh5jir0t-2" edge="1">
          <mxGeometry width="50" height="50" relative="1" as="geometry">
            <mxPoint x="-525" y="980" as="sourcePoint" />
            <mxPoint x="-475" y="930" as="targetPoint" />
          </mxGeometry>
        </mxCell>
        <mxCell id="aIaTs00fkOeMePZRw_a_-98" value="" style="endArrow=none;html=1;rounded=0;entryX=0;entryY=0.5;entryDx=0;entryDy=0;exitX=1;exitY=0.5;exitDx=0;exitDy=0;" parent="1" source="ml2Jakst_2B5WDpi4ZWz-25" target="4BpRKvhMIzCagh5jir0t-2" edge="1">
          <mxGeometry width="50" height="50" relative="1" as="geometry">
            <mxPoint x="-525" y="980" as="sourcePoint" />
            <mxPoint x="-475" y="930" as="targetPoint" />
          </mxGeometry>
        </mxCell>
        <mxCell id="aIaTs00fkOeMePZRw_a_-99" value="" style="endArrow=none;html=1;rounded=0;exitX=1;exitY=0.5;exitDx=0;exitDy=0;entryX=0;entryY=0.5;entryDx=0;entryDy=0;" parent="1" source="ml2Jakst_2B5WDpi4ZWz-33" target="4BpRKvhMIzCagh5jir0t-2" edge="1">
          <mxGeometry width="50" height="50" relative="1" as="geometry">
            <mxPoint x="-525" y="980" as="sourcePoint" />
            <mxPoint x="-475" y="930" as="targetPoint" />
          </mxGeometry>
        </mxCell>
        <mxCell id="aIaTs00fkOeMePZRw_a_-100" value="" style="endArrow=none;html=1;rounded=0;exitX=1;exitY=0.5;exitDx=0;exitDy=0;entryX=0;entryY=0.5;entryDx=0;entryDy=0;" parent="1" source="ml2Jakst_2B5WDpi4ZWz-21" target="4BpRKvhMIzCagh5jir0t-2" edge="1">
          <mxGeometry width="50" height="50" relative="1" as="geometry">
            <mxPoint x="-675" y="880" as="sourcePoint" />
            <mxPoint x="-625" y="830" as="targetPoint" />
          </mxGeometry>
        </mxCell>
        <mxCell id="aIaTs00fkOeMePZRw_a_-101" value="" style="endArrow=none;html=1;rounded=0;exitX=1;exitY=0.5;exitDx=0;exitDy=0;entryX=0;entryY=0.5;entryDx=0;entryDy=0;" parent="1" source="ml2Jakst_2B5WDpi4ZWz-20" target="4BpRKvhMIzCagh5jir0t-2" edge="1">
          <mxGeometry width="50" height="50" relative="1" as="geometry">
            <mxPoint x="-630" y="855" as="sourcePoint" />
            <mxPoint x="-580" y="805" as="targetPoint" />
          </mxGeometry>
        </mxCell>
        <mxCell id="aIaTs00fkOeMePZRw_a_-102" value="" style="endArrow=none;html=1;rounded=0;exitX=1;exitY=0.7;exitDx=0;exitDy=0;exitPerimeter=0;entryX=0;entryY=0.5;entryDx=0;entryDy=0;" parent="1" source="ml2Jakst_2B5WDpi4ZWz-17" target="4BpRKvhMIzCagh5jir0t-2" edge="1">
          <mxGeometry width="50" height="50" relative="1" as="geometry">
            <mxPoint x="-617.5" y="820" as="sourcePoint" />
            <mxPoint x="-567.5" y="770" as="targetPoint" />
          </mxGeometry>
        </mxCell>
        <mxCell id="aIaTs00fkOeMePZRw_a_-103" value="" style="endArrow=none;html=1;rounded=0;entryX=1;entryY=0.5;entryDx=0;entryDy=0;exitX=0;exitY=0.5;exitDx=0;exitDy=0;" parent="1" source="4BpRKvhMIzCagh5jir0t-2" target="ml2Jakst_2B5WDpi4ZWz-31" edge="1">
          <mxGeometry width="50" height="50" relative="1" as="geometry">
            <mxPoint x="-605" y="800" as="sourcePoint" />
            <mxPoint x="-555" y="750" as="targetPoint" />
          </mxGeometry>
        </mxCell>
        <mxCell id="aIaTs00fkOeMePZRw_a_-104" value="" style="endArrow=none;html=1;rounded=0;entryX=0.933;entryY=0.672;entryDx=0;entryDy=0;entryPerimeter=0;exitX=0;exitY=0.5;exitDx=0;exitDy=0;" parent="1" source="4BpRKvhMIzCagh5jir0t-2" target="ml2Jakst_2B5WDpi4ZWz-32" edge="1">
          <mxGeometry width="50" height="50" relative="1" as="geometry">
            <mxPoint x="-545" y="770" as="sourcePoint" />
            <mxPoint x="-495" y="720" as="targetPoint" />
          </mxGeometry>
        </mxCell>
        <mxCell id="aIaTs00fkOeMePZRw_a_-105" value="" style="endArrow=none;html=1;rounded=0;entryX=1;entryY=1;entryDx=0;entryDy=0;exitX=0;exitY=0;exitDx=0;exitDy=0;" parent="1" source="4BpRKvhMIzCagh5jir0t-2" target="ml2Jakst_2B5WDpi4ZWz-26" edge="1">
          <mxGeometry width="50" height="50" relative="1" as="geometry">
            <mxPoint x="-525" y="980" as="sourcePoint" />
            <mxPoint x="-525" y="720" as="targetPoint" />
          </mxGeometry>
        </mxCell>
        <mxCell id="aIaTs00fkOeMePZRw_a_-118" value="&lt;span style=&quot;&quot;&gt;&lt;font style=&quot;font-size: 16px;&quot;&gt;m&lt;/font&gt;&lt;/span&gt;" style="text;strokeColor=none;fillColor=none;html=1;fontSize=24;fontStyle=1;verticalAlign=middle;align=center;fontColor=light-dark(#000000,#FFD966);" parent="1" vertex="1">
          <mxGeometry x="-540" y="110" width="100" height="40" as="geometry" />
        </mxCell>
        <mxCell id="aIaTs00fkOeMePZRw_a_-119" value="&lt;span style=&quot;&quot;&gt;&lt;font style=&quot;font-size: 16px;&quot;&gt;1&lt;/font&gt;&lt;/span&gt;" style="text;strokeColor=none;fillColor=none;html=1;fontSize=24;fontStyle=1;verticalAlign=middle;align=center;fontColor=light-dark(#000000,#FFD966);" parent="1" vertex="1">
          <mxGeometry x="-553" y="-659" width="100" height="40" as="geometry" />
        </mxCell>
        <mxCell id="aIaTs00fkOeMePZRw_a_-122" value="&lt;span style=&quot;&quot;&gt;&lt;font style=&quot;font-size: 16px;&quot;&gt;m&lt;/font&gt;&lt;/span&gt;" style="text;strokeColor=none;fillColor=none;html=1;fontSize=24;fontStyle=1;verticalAlign=middle;align=center;fontColor=light-dark(#000000,#FFD966);" parent="1" vertex="1">
          <mxGeometry x="-540" y="760" width="100" height="40" as="geometry" />
        </mxCell>
        <mxCell id="aIaTs00fkOeMePZRw_a_-123" value="&lt;span style=&quot;&quot;&gt;&lt;font style=&quot;font-size: 16px;&quot;&gt;1&lt;/font&gt;&lt;/span&gt;" style="text;strokeColor=none;fillColor=none;html=1;fontSize=24;fontStyle=1;verticalAlign=middle;align=center;fontColor=light-dark(#000000,#FFD966);" parent="1" vertex="1">
          <mxGeometry x="-540" y="210" width="100" height="40" as="geometry" />
        </mxCell>
        <mxCell id="aIaTs00fkOeMePZRw_a_-127" value="&lt;span style=&quot;&quot;&gt;&lt;font style=&quot;font-size: 16px;&quot;&gt;1&lt;/font&gt;&lt;/span&gt;" style="text;strokeColor=none;fillColor=none;html=1;fontSize=24;fontStyle=1;verticalAlign=middle;align=center;fontColor=light-dark(#000000,#FFD966);" parent="1" vertex="1">
          <mxGeometry x="-450" y="840" width="100" height="40" as="geometry" />
        </mxCell>
        <mxCell id="aIaTs00fkOeMePZRw_a_-128" value="&lt;span style=&quot;&quot;&gt;&lt;font style=&quot;font-size: 16px;&quot;&gt;m&lt;/font&gt;&lt;/span&gt;" style="text;strokeColor=none;fillColor=none;html=1;fontSize=24;fontStyle=1;verticalAlign=middle;align=center;fontColor=light-dark(#000000,#FFD966);" parent="1" vertex="1">
          <mxGeometry x="444" y="834" width="100" height="40" as="geometry" />
        </mxCell>
        <mxCell id="aIaTs00fkOeMePZRw_a_-134" value="&lt;span style=&quot;&quot;&gt;&lt;font style=&quot;font-size: 16px;&quot;&gt;m&lt;/font&gt;&lt;/span&gt;" style="text;strokeColor=none;fillColor=none;html=1;fontSize=24;fontStyle=1;verticalAlign=middle;align=center;fontColor=light-dark(#000000,#FFD966);" parent="1" vertex="1">
          <mxGeometry x="39.5" y="81" width="100" height="40" as="geometry" />
        </mxCell>
        <mxCell id="aIaTs00fkOeMePZRw_a_-135" value="&lt;span style=&quot;&quot;&gt;&lt;font style=&quot;font-size: 16px;&quot;&gt;1&lt;/font&gt;&lt;/span&gt;" style="text;strokeColor=none;fillColor=none;html=1;fontSize=24;fontStyle=1;verticalAlign=middle;align=center;fontColor=light-dark(#000000,#FFD966);" parent="1" vertex="1">
          <mxGeometry x="-450" y="760" width="100" height="40" as="geometry" />
        </mxCell>
        <mxCell id="c_HHd14W4TAPvZGblNiM-1" value="location" style="ellipse;whiteSpace=wrap;html=1;" vertex="1" parent="1">
          <mxGeometry x="1037" y="1041" width="75" height="30" as="geometry" />
        </mxCell>
        <mxCell id="c_HHd14W4TAPvZGblNiM-2" value="" style="shape=curlyBracket;whiteSpace=wrap;html=1;rounded=1;labelPosition=left;verticalLabelPosition=middle;align=right;verticalAlign=middle;size=0.3625;" vertex="1" parent="1">
          <mxGeometry x="1046" y="1103" width="20" height="62" as="geometry" />
        </mxCell>
        <mxCell id="c_HHd14W4TAPvZGblNiM-3" value="" style="shape=curlyBracket;whiteSpace=wrap;html=1;rounded=1;flipH=1;labelPosition=right;verticalLabelPosition=middle;align=left;verticalAlign=middle;" vertex="1" parent="1">
          <mxGeometry x="1301" y="1104" width="20" height="61" as="geometry" />
        </mxCell>
        <mxCell id="c_HHd14W4TAPvZGblNiM-4" value="name" style="ellipse;whiteSpace=wrap;html=1;" vertex="1" parent="1">
          <mxGeometry x="1120" y="1098" width="60" height="30" as="geometry" />
        </mxCell>
        <mxCell id="c_HHd14W4TAPvZGblNiM-5" value="address" style="ellipse;whiteSpace=wrap;html=1;" vertex="1" parent="1">
          <mxGeometry x="1085" y="1135" width="75" height="30" as="geometry" />
        </mxCell>
        <mxCell id="c_HHd14W4TAPvZGblNiM-6" value="postcode" style="ellipse;whiteSpace=wrap;html=1;" vertex="1" parent="1">
          <mxGeometry x="1148" y="1165" width="75" height="30" as="geometry" />
        </mxCell>
        <mxCell id="c_HHd14W4TAPvZGblNiM-7" value="city" style="ellipse;whiteSpace=wrap;html=1;" vertex="1" parent="1">
          <mxGeometry x="1191" y="1094" width="75" height="30" as="geometry" />
        </mxCell>
        <mxCell id="c_HHd14W4TAPvZGblNiM-8" value="district" style="ellipse;whiteSpace=wrap;html=1;" vertex="1" parent="1">
          <mxGeometry x="1211" y="1135" width="75" height="30" as="geometry" />
        </mxCell>
        <mxCell id="c_HHd14W4TAPvZGblNiM-9" value="&lt;font style=&quot;font-size: 16px;&quot;&gt;JSON&lt;/font&gt;" style="text;strokeColor=none;fillColor=none;html=1;fontSize=24;fontStyle=1;verticalAlign=middle;align=center;" vertex="1" parent="1">
          <mxGeometry x="1104" y="1041" width="100" height="40" as="geometry" />
        </mxCell>
        <mxCell id="c_HHd14W4TAPvZGblNiM-10" value="" style="endArrow=none;html=1;rounded=0;exitX=0;exitY=0.5;exitDx=0;exitDy=0;entryX=1;entryY=0.5;entryDx=0;entryDy=0;" edge="1" parent="1" source="c_HHd14W4TAPvZGblNiM-1" target="4BpRKvhMIzCagh5jir0t-1">
          <mxGeometry width="50" height="50" relative="1" as="geometry">
            <mxPoint x="798" y="831" as="sourcePoint" />
            <mxPoint x="473" y="791" as="targetPoint" />
          </mxGeometry>
        </mxCell>
        <mxCell id="c_HHd14W4TAPvZGblNiM-11" value="schedule" style="ellipse;whiteSpace=wrap;html=1;" vertex="1" parent="1">
          <mxGeometry x="69" y="1060" width="75" height="30" as="geometry" />
        </mxCell>
        <mxCell id="c_HHd14W4TAPvZGblNiM-12" value="" style="shape=curlyBracket;whiteSpace=wrap;html=1;rounded=1;labelPosition=left;verticalLabelPosition=middle;align=right;verticalAlign=middle;size=0.3625;" vertex="1" parent="1">
          <mxGeometry x="45" y="1110" width="20" height="62" as="geometry" />
        </mxCell>
        <mxCell id="c_HHd14W4TAPvZGblNiM-13" value="" style="shape=curlyBracket;whiteSpace=wrap;html=1;rounded=1;flipH=1;labelPosition=right;verticalLabelPosition=middle;align=left;verticalAlign=middle;" vertex="1" parent="1">
          <mxGeometry x="296" y="1131" width="20" height="61" as="geometry" />
        </mxCell>
        <mxCell id="c_HHd14W4TAPvZGblNiM-15" value="day : {time_start,time_end ,detail,location_in _time} , location_in_day" style="ellipse;whiteSpace=wrap;html=1;" vertex="1" parent="1">
          <mxGeometry x="74" y="1128" width="216" height="67" as="geometry" />
        </mxCell>
        <mxCell id="c_HHd14W4TAPvZGblNiM-19" value="&lt;font style=&quot;font-size: 16px;&quot;&gt;JSON&lt;/font&gt;" style="text;strokeColor=none;fillColor=none;html=1;fontSize=24;fontStyle=1;verticalAlign=middle;align=center;" vertex="1" parent="1">
          <mxGeometry x="52.5" y="1088" width="100" height="40" as="geometry" />
        </mxCell>
        <mxCell id="c_HHd14W4TAPvZGblNiM-20" value="" style="endArrow=none;html=1;rounded=0;exitX=0.123;exitY=1.026;exitDx=0;exitDy=0;entryX=0.5;entryY=0;entryDx=0;entryDy=0;exitPerimeter=0;" edge="1" parent="1" source="4BpRKvhMIzCagh5jir0t-1" target="c_HHd14W4TAPvZGblNiM-11">
          <mxGeometry width="50" height="50" relative="1" as="geometry">
            <mxPoint x="223" y="945" as="sourcePoint" />
            <mxPoint x="360" y="1140" as="targetPoint" />
          </mxGeometry>
        </mxCell>
        <mxCell id="c_HHd14W4TAPvZGblNiM-21" value="activity_hour" style="ellipse;whiteSpace=wrap;html=1;" vertex="1" parent="1">
          <mxGeometry x="1362" y="1068" width="75" height="30" as="geometry" />
        </mxCell>
        <mxCell id="c_HHd14W4TAPvZGblNiM-29" value="" style="shape=curlyBracket;whiteSpace=wrap;html=1;rounded=1;labelPosition=left;verticalLabelPosition=middle;align=right;verticalAlign=middle;size=0.3625;" vertex="1" parent="1">
          <mxGeometry x="1332" y="1146" width="20" height="62" as="geometry" />
        </mxCell>
        <mxCell id="c_HHd14W4TAPvZGblNiM-31" value="&lt;font style=&quot;font-size: 16px;&quot;&gt;JSON&lt;/font&gt;" style="text;strokeColor=none;fillColor=none;html=1;fontSize=24;fontStyle=1;verticalAlign=middle;align=center;" vertex="1" parent="1">
          <mxGeometry x="1297" y="1098" width="100" height="40" as="geometry" />
        </mxCell>
        <mxCell id="c_HHd14W4TAPvZGblNiM-32" value="" style="shape=curlyBracket;whiteSpace=wrap;html=1;rounded=1;flipH=1;labelPosition=right;verticalLabelPosition=middle;align=left;verticalAlign=middle;" vertex="1" parent="1">
          <mxGeometry x="1571" y="1151" width="20" height="61" as="geometry" />
        </mxCell>
        <mxCell id="c_HHd14W4TAPvZGblNiM-34" value="activity_type : hour&amp;nbsp;" style="ellipse;whiteSpace=wrap;html=1;" vertex="1" parent="1">
          <mxGeometry x="1352" y="1146" width="216" height="67" as="geometry" />
        </mxCell>
        <mxCell id="c_HHd14W4TAPvZGblNiM-35" value="" style="endArrow=none;html=1;rounded=0;exitX=0;exitY=0.5;exitDx=0;exitDy=0;entryX=1;entryY=0.25;entryDx=0;entryDy=0;" edge="1" parent="1" source="c_HHd14W4TAPvZGblNiM-21" target="4BpRKvhMIzCagh5jir0t-1">
          <mxGeometry width="50" height="50" relative="1" as="geometry">
            <mxPoint x="727" y="698" as="sourcePoint" />
            <mxPoint x="395" y="715" as="targetPoint" />
          </mxGeometry>
        </mxCell>
        <mxCell id="c_HHd14W4TAPvZGblNiM-39" value="Activity_Hours" style="rounded=0;whiteSpace=wrap;html=1;fillColor=#b1ddf0;strokeColor=#10739e;" vertex="1" parent="1">
          <mxGeometry x="656.5" y="333" width="153" height="60" as="geometry" />
        </mxCell>
        <mxCell id="c_HHd14W4TAPvZGblNiM-45" value="" style="endArrow=none;html=1;rounded=0;hachureGap=4;strokeColor=#0B4D6A;fontFamily=Architects Daughter;fontSource=https%3A%2F%2Ffonts.googleapis.com%2Fcss%3Ffamily%3DArchitects%2BDaughter;entryX=1;entryY=0.5;entryDx=0;entryDy=0;exitX=0;exitY=0.5;exitDx=0;exitDy=0;" edge="1" parent="1" source="c_HHd14W4TAPvZGblNiM-46" target="4BpRKvhMIzCagh5jir0t-3">
          <mxGeometry width="50" height="50" relative="1" as="geometry">
            <mxPoint x="332" y="218" as="sourcePoint" />
            <mxPoint x="288" y="274" as="targetPoint" />
          </mxGeometry>
        </mxCell>
        <mxCell id="c_HHd14W4TAPvZGblNiM-46" value="ADD" style="rhombus;whiteSpace=wrap;html=1;" vertex="1" parent="1">
          <mxGeometry x="693" y="64" width="80" height="80" as="geometry" />
        </mxCell>
        <mxCell id="c_HHd14W4TAPvZGblNiM-47" value="" style="endArrow=none;html=1;rounded=0;hachureGap=4;strokeColor=#0B4D6A;fontFamily=Architects Daughter;fontSource=https%3A%2F%2Ffonts.googleapis.com%2Fcss%3Ffamily%3DArchitects%2BDaughter;exitX=0.5;exitY=0;exitDx=0;exitDy=0;entryX=0.5;entryY=1;entryDx=0;entryDy=0;" edge="1" parent="1" source="c_HHd14W4TAPvZGblNiM-39" target="c_HHd14W4TAPvZGblNiM-46">
          <mxGeometry width="50" height="50" relative="1" as="geometry">
            <mxPoint x="574.5" y="380" as="sourcePoint" />
            <mxPoint x="544" y="321" as="targetPoint" />
          </mxGeometry>
        </mxCell>
        <mxCell id="c_HHd14W4TAPvZGblNiM-49" value="SEND" style="rhombus;whiteSpace=wrap;html=1;" vertex="1" parent="1">
          <mxGeometry x="693" y="520" width="80" height="80" as="geometry" />
        </mxCell>
        <mxCell id="c_HHd14W4TAPvZGblNiM-50" value="" style="endArrow=none;html=1;rounded=0;hachureGap=4;strokeColor=#0B4D6A;fontFamily=Architects Daughter;fontSource=https%3A%2F%2Ffonts.googleapis.com%2Fcss%3Ffamily%3DArchitects%2BDaughter;exitX=0.5;exitY=0;exitDx=0;exitDy=0;entryX=0.5;entryY=1;entryDx=0;entryDy=0;" edge="1" parent="1" source="c_HHd14W4TAPvZGblNiM-49" target="c_HHd14W4TAPvZGblNiM-39">
          <mxGeometry width="50" height="50" relative="1" as="geometry">
            <mxPoint x="772" y="388" as="sourcePoint" />
            <mxPoint x="582" y="455" as="targetPoint" />
          </mxGeometry>
        </mxCell>
        <mxCell id="c_HHd14W4TAPvZGblNiM-51" value="" style="endArrow=none;html=1;rounded=0;hachureGap=4;strokeColor=#0B4D6A;fontFamily=Architects Daughter;fontSource=https%3A%2F%2Ffonts.googleapis.com%2Fcss%3Ffamily%3DArchitects%2BDaughter;entryX=0.5;entryY=1;entryDx=0;entryDy=0;exitX=0.5;exitY=0;exitDx=0;exitDy=0;" edge="1" parent="1" source="4BpRKvhMIzCagh5jir0t-1" target="c_HHd14W4TAPvZGblNiM-49">
          <mxGeometry width="50" height="50" relative="1" as="geometry">
            <mxPoint x="592" y="809" as="sourcePoint" />
            <mxPoint x="530" y="462" as="targetPoint" />
          </mxGeometry>
        </mxCell>
      </root>
    </mxGraphModel>
  </diagram>
</mxfile>
